<?xml version="1.0" encoding="utf-8"?>
<!-- Generator: Adobe Illustrator 23.0.4, SVG Export Plug-In . SVG Version: 6.00 Build 0)  -->
<svg version="1.1" id="Layer_1" xmlns="http://www.w3.org/2000/svg" xmlns:xlink="http://www.w3.org/1999/xlink" x="0px" y="0px"
	 viewBox="0 0 535 219" style="enable-background:new 0 0 535 219;" xml:space="preserve">
<style type="text/css">
	.st0{fill:#333333;}
	.st1{display:none;fill:#333333;}
</style>
<g>
	<g>
		<g>
			<path id="SVGID_3_" class="st0" d="M87.5,6.4C85.1,8,88.9,13.8,86.1,17c-5.3,5.9-24.2-6.9-28.6-2c-3.2,3.6,4.9,11.9,7.1,25.7
				c1.9,11.8-1.4,22.4-4.8,29.9c5.9,6,9.2,9.9,8.6,10.7c-0.6,0.8-5.3-1.5-12.7-6.1c-1.1,1.2-2,2.2-2.7,2.9c-2.3,2.4-4.4,4.5-6.4,6.4
				c14.7,13.6,24.6,23.8,23.6,25.1c-1.1,1.3-13.8-6.1-31.1-18.7c-19,25.9-20,43.1-16.7,54.4c6.3,21.5,24.8,33.9,24.8,33.9
				c4.1,3,8.7,5.6,10.7,11.4c3.9,10.7-4.9,21.6-3.7,22.2c1.6,0.9,18.9-15.8,14.8-29.7c-3.1-10.7-17.6-14-16.5-17.3
				c1.6-5.2,36.7,4.1,40.3-4c2-4.6-8.9-8.6-9.6-19.5c-0.6-9.7,6.6-13.1,14.4-32.5c7.2-18,1.7-26.5,3.5-40.6
				c0.8-6.2,2.8-11.1,3.7-13.6c4.2-11,7.9-12.8,8.2-19.3c0.4-6.5-3-11.6-5.7-15.7C101.4,11.4,90.9,4.2,87.5,6.4z"/>
		</g>
	</g>
	<g>
		<path class="st0" d="M175.5,110.4c-1.5-2.2-3.7-4.1-6.6-5.7c-2.9-1.5-6.1-2.3-9.4-2.3c-3.6,0-6.8,0.7-9.6,2.1s-5.2,3.2-7.1,5.5
			c-2,2.3-3.4,5-4.5,8c-1,3-1.5,6.2-1.5,9.6c0,3.3,0.5,6.5,1.5,9.5s2.5,5.7,4.5,8s4.4,4.1,7.2,5.5s6.1,2.1,9.7,2.1
			c3.5,0,6.7-0.7,9.6-2.1c2.9-1.4,5.3-3.2,7.1-5.6l9.3,8.4c-2.9,3.4-6.6,6.1-11,8s-9.4,2.9-15,2.9c-5.4,0-10.4-0.9-14.9-2.6
			c-4.6-1.8-8.5-4.2-11.8-7.4s-5.9-7-7.9-11.5c-1.9-4.5-2.9-9.5-2.9-15.1c0-5.5,0.9-10.5,2.8-15s4.5-8.4,7.8-11.6s7.3-5.7,11.8-7.5
			s9.5-2.6,14.8-2.6c4.9,0,9.8,1,14.6,2.9s8.7,4.8,11.5,8.5L175.5,110.4z"/>
		<path class="st0" d="M294.1,104.1h-18.5v36.2c0,4.2,0.8,7.2,2.3,9s4.1,2.7,7.5,2.7c1.3,0,2.6-0.1,4.1-0.4c1.5-0.3,2.8-0.7,4-1.2
			l0.4,11.3c-1.7,0.6-3.5,1-5.5,1.4s-4.1,0.5-6.2,0.5c-6.6,0-11.6-1.8-15.1-5.4c-3.5-3.6-5.2-9.1-5.2-16.3v-37.7c0-3.8,0-7.5,0-11.3
			v-20h13.7v20h18.5L294.1,104.1L294.1,104.1z"/>
		<path class="st0" d="M346,110.4c-1.6-2.5-3.8-4.6-6.6-6.2s-6-2.4-9.5-2.4c-1.6,0-3.1,0.2-4.7,0.5s-3,0.9-4.2,1.6s-2.2,1.7-2.9,2.8
			c-0.7,1.1-1.1,2.5-1.1,4.2c0,2.9,1.3,5.1,4,6.5c2.6,1.4,6.6,2.7,11.9,3.9c3.3,0.8,6.4,1.7,9.3,2.8c2.8,1.1,5.3,2.4,7.4,4
			c2.1,1.6,3.7,3.6,4.9,5.8c1.2,2.3,1.8,4.9,1.8,7.9c0,4.1-0.8,7.6-2.3,10.4c-1.6,2.8-3.7,5.2-6.2,7c-2.6,1.8-5.6,3.1-8.9,3.9
			c-3.3,0.8-6.8,1.2-10.3,1.2c-5.3,0-10.5-1-15.5-3.1s-9.2-5.2-12.6-9.4l9.8-8.4c1.9,2.7,4.4,5,7.7,6.9c3.3,1.9,6.9,2.8,10.8,2.8
			c1.8,0,3.5-0.2,5.1-0.5s3.1-0.9,4.4-1.7s2.4-1.8,3.2-3.1c0.8-1.3,1.2-2.9,1.2-4.8c0-3.2-1.5-5.6-4.6-7.2c-3.1-1.6-7.6-3-13.6-4.4
			c-2.3-0.6-4.7-1.3-7.1-2.1s-4.6-2-6.5-3.5c-2-1.5-3.5-3.3-4.8-5.5c-1.2-2.2-1.8-4.9-1.8-8.1c0-3.7,0.8-6.9,2.3-9.6s3.5-4.9,6-6.6
			c2.4-1.7,5.2-3,8.4-3.8c3.1-0.8,6.4-1.2,9.7-1.2c5,0,9.8,1,14.5,2.9c4.6,1.9,8.2,4.8,10.8,8.5L346,110.4z"/>
		<path class="st0" d="M415.2,164c0-4.4,0-8.7,0-13.1c-1.8,3.7-4.7,6.9-8.9,9.5c-4.2,2.6-8.8,3.9-13.9,3.9c-4.5,0-8.4-0.7-11.7-2.2
			c-3.3-1.5-6-3.5-8.1-6.1s-3.7-5.6-4.7-9s-1.5-7.1-1.5-11V92.8h13.8v38.5c0,2.8,0.2,5.6,0.7,8.2c0.4,2.6,1.2,4.9,2.4,6.8
			c1.2,2,2.8,3.5,4.8,4.7c2.1,1.2,4.7,1.8,7.9,1.8c5.6,0,10.1-2.1,13.5-6.2c3.4-4.2,5.1-9.7,5.1-16.7v-37h13.8
			c0,23.7,0,47.5-0.1,71.2C424.1,164,419.6,164,415.2,164z"/>
		<path class="st0" d="M454.1,197.6h-13.8V92.8h13.5v10.9h0.4c2.2-3.7,5.5-6.8,9.9-9.2c4.3-2.4,9.4-3.6,15.2-3.6
			c5.2,0,9.9,0.9,14.1,2.8s7.9,4.5,11,7.8s5.4,7.2,7.1,11.7c1.7,4.5,2.5,9.2,2.5,14.3s-0.8,9.9-2.5,14.4s-4,8.4-7,11.7
			s-6.7,5.9-11,7.9c-4.3,1.9-9.1,2.9-14.5,2.9c-5,0-9.7-1.1-14.1-3.2c-4.4-2.2-7.9-5.2-10.4-9.1h-0.4V197.6z M499.9,127.4
			c0-3.2-0.5-6.4-1.5-9.4s-2.5-5.7-4.4-8.1c-2-2.3-4.4-4.2-7.3-5.6s-6.2-2.1-10.1-2.1c-3.5,0-6.7,0.7-9.6,2.1s-5.4,3.2-7.4,5.6
			c-2.1,2.4-3.7,5-4.8,8.1c-1.1,3-1.7,6.2-1.7,9.6c0,3.3,0.6,6.5,1.7,9.5s2.7,5.7,4.8,8c2.1,2.3,4.5,4.1,7.4,5.5s6.1,2.1,9.6,2.1
			c3.8,0,7.2-0.7,10.1-2.1c2.9-1.4,5.3-3.3,7.3-5.7s3.4-5,4.4-8.1C499.4,133.8,499.9,130.7,499.9,127.4z"/>
		<g>
			<path class="st0" d="M250.7,117.8c0-1.4-0.1-5.8-1.8-10.4c-1.2-3.3-2.9-6.2-5.3-8.7c-2.3-2.4-5.4-4.4-9-5.8
				c-3.7-1.4-8-2.1-13-2.1c-5.7,0-11,0.9-15.9,2.8s-9.1,4.4-12.6,7.6l7.3,8.8c2.4-2.3,5.3-4.3,8.7-5.8c3.5-1.5,7.2-2.3,11.1-2.3
				c5.2,0,9.4,1.2,12.5,3.7s4.7,6.3,4.7,11.5v1.9c-5.9,0-11.7,0.3-17.5,0.7s-11,1.5-15.6,3.2s-8.3,4-11.2,7.1s-4.3,7.3-4.3,12.6
				c0,4,0.8,7.4,2.4,10.1c1.6,2.7,3.6,4.9,6.1,6.6c2.4,1.7,5.2,2.9,8.2,3.6c3,0.7,5.9,1.1,8.6,1.1c5.3,0,9.9-1,13.7-3.1
				c1.5-0.8,3-1.8,4.3-2.9c2.5-2.1,4.2-4.2,5.3-5.8c0,2.7,0,5.4,0,8.2l0,0v2.4c0,0.2,0,0.3,0,0.5l0,0v0.1h0.3h0.1c0.1,0,0.2,0,0.3,0
				h12.3v-2.9c0.1-19,0.2-39.7,0.2-42.4C250.7,118.1,250.7,118,250.7,117.8z M237.5,132.9c0,5.9-1.7,10.7-5.2,14.6
				c-3.5,3.9-8.4,5.8-14.9,5.8c-1.8,0-3.5-0.2-5.1-0.5c-1.7-0.3-3.2-1-4.6-1.8c-1.4-0.9-2.5-2-3.3-3.4s-1.2-3.1-1.2-5.1
				c0-2.9,1-5.3,2.9-7.1s4.4-3.1,7.4-4s6.3-1.5,10-1.8s7.2-0.4,10.6-0.4h3.4L237.5,132.9L237.5,132.9z"/>
			<path class="st1" d="M223.5,129.6c-3.7,0.3-7,0.9-10,1.8c-3,0.9-5.5,2.2-7.4,4s-2.9,4.1-2.9,7.1c0,2.1,0.4,3.8,1.2,5.1
				c0.8,1.4,1.9,2.5,3.3,3.4c1.4,0.9,2.9,1.5,4.6,1.8c1.7,0.3,3.4,0.5,5.1,0.5c6.5,0,11.4-1.9,14.9-5.8c3.5-3.9,5.2-8.7,5.2-14.6
				v-3.7h-3.4C230.7,129.2,227.1,129.3,223.5,129.6z"/>
		</g>
	</g>
</g>
</svg>
