<?xml version="1.0" encoding="utf-8"?>
<!-- Generator: Adobe Illustrator 23.0.2, SVG Export Plug-In . SVG Version: 6.00 Build 0)  -->
<svg version="1.1" id="Layer_1" xmlns="http://www.w3.org/2000/svg" xmlns:xlink="http://www.w3.org/1999/xlink" x="0px" y="0px"
	 viewBox="0 0 600 600" style="enable-background:new 0 0 600 600;" xml:space="preserve">
<style type="text/css">
	.st0{fill:url(#SVGID_1_);}
	.st1{fill:#FFFFFF;}
</style>
<g>
	<linearGradient id="SVGID_1_" gradientUnits="userSpaceOnUse" x1="300" y1="600" x2="300" y2="-9.094947e-13">
		<stop  offset="0" style="stop-color:#4F4AD5"/>
		<stop  offset="1" style="stop-color:#5252FF"/>
	</linearGradient>
	<circle class="st0" cx="300" cy="300" r="300"/>
</g>
<g>
	<path class="st1" d="M330.36,192.58c-11.2-5.35-23.07-7.93-35.62-7.73c-12.55,0.21-25.64,3.5-39.25,9.88
		c-13.62,6.39-24.99,14.94-34.11,25.66c-9.12,10.73-15.72,22.82-19.79,36.27c-4.07,13.47-5.44,27.84-4.12,43.13
		c1.32,15.29,5.55,30.55,12.69,45.76c7.28,15.53,16.34,28.61,27.18,39.24c10.84,10.64,22.66,18.73,35.45,24.28
		c12.8,5.56,26.08,8.32,39.85,8.3c13.77-0.01,27.15-3.08,40.15-9.17c14.85-6.97,26.55-16.23,35.08-27.82
		c8.53-11.58,13.9-24.7,16.08-39.36c5.22-20.75,23.61-34.25,42.46-32.87c22.33,1.64,41.41,23.9,39.07,49.75
		c-1.76,10.07-5.42,24.6-13.6,40.41c-5.13,9.91-11.46,19.15-18.99,27.72c-16.98,19.33-36.77,34.29-59.35,44.89
		c-25.69,12.05-51.25,19.11-76.69,21.2c-25.45,2.09-49.59-0.69-72.44-8.36c-22.84-7.66-43.7-20.13-62.57-37.42
		c-18.87-17.29-34.49-39.13-46.87-65.52c-12.38-26.39-19.18-52.37-20.42-77.93c-1.23-25.56,2.51-49.57,11.23-72.03
		c8.72-22.46,22.01-42.8,39.88-61.04c17.87-18.23,39.64-33.37,65.33-45.42c9.28-4.35,19.35-8.03,30.21-11.04
		c10.85-3,22.03-4.94,33.53-5.78c11.49-0.84,23.18-0.26,35.07,1.73c11.89,2.01,23.5,5.84,34.84,11.5
		c19.29,10.14,27.46,34.26,18.37,53.71C373.82,194.19,350.07,202.41,330.36,192.58z"/>
</g>
</svg>
