<?xml version="1.0" encoding="utf-8"?>
<!-- Generator: Adobe Illustrator 23.0.4, SVG Export Plug-In . SVG Version: 6.00 Build 0)  -->
<svg version="1.1" id="Layer_1" xmlns="http://www.w3.org/2000/svg" xmlns:xlink="http://www.w3.org/1999/xlink" x="0px" y="0px"
	 viewBox="0 0 535 219" style="enable-background:new 0 0 535 219;" xml:space="preserve">
<style type="text/css">
	.st0{fill:#333333;}
	.st1{display:none;fill:#333333;}
</style>
<g>
	<g>
		<path class="st0" d="M91,78.7c-1.9-2.7-4.6-5.1-8.2-7.1c-3.6-1.9-7.6-2.8-11.6-2.8c-4.5,0-8.4,0.9-11.9,2.6
			c-3.5,1.7-6.4,4-8.8,6.8c-2.5,2.8-4.2,6.2-5.6,9.9c-1.2,3.7-1.9,7.7-1.9,11.9c0,4.1,0.6,8,1.9,11.8c1.2,3.7,3.1,7.1,5.6,9.9
			c2.5,2.8,5.4,5.1,8.9,6.8c3.5,1.7,7.6,2.6,12,2.6c4.3,0,8.3-0.9,11.9-2.6c3.6-1.7,6.6-4,8.8-6.9l11.5,10.4
			c-3.6,4.2-8.2,7.6-13.6,9.9c-5.4,2.4-11.6,3.6-18.6,3.6c-6.7,0-12.9-1.1-18.4-3.2c-5.7-2.2-10.5-5.2-14.6-9.2
			c-4.1-4-7.3-8.7-9.8-14.2c-2.4-5.6-3.6-11.8-3.6-18.7c0-6.8,1.1-13,3.5-18.6c2.4-5.6,5.6-10.4,9.7-14.4c4.1-4,9-7.1,14.6-9.3
			s11.8-3.2,18.3-3.2c6.1,0,12.1,1.2,18.1,3.6c5.9,2.4,10.8,5.9,14.2,10.5L91,78.7z"/>
		<path class="st0" d="M237.8,70.9h-22.9v44.8c0,5.2,1,8.9,2.8,11.1c1.9,2.2,5.1,3.3,9.3,3.3c1.6,0,3.2-0.1,5.1-0.5
			c1.9-0.4,3.5-0.9,5-1.5l0.5,14c-2.1,0.7-4.3,1.2-6.8,1.7c-2.5,0.5-5.1,0.6-7.7,0.6c-8.2,0-14.4-2.2-18.7-6.7
			c-4.3-4.5-6.4-11.3-6.4-20.2V71.1c0-4.7,0-9.3,0-14V32.3h17v24.8h22.9L237.8,70.9L237.8,70.9z"/>
		<path class="st0" d="M302,78.7c-2-3.1-4.7-5.7-8.2-7.7c-3.5-2-7.4-3-11.8-3c-2,0-3.8,0.2-5.8,0.6c-2,0.4-3.7,1.1-5.2,2
			s-2.7,2.1-3.6,3.5c-0.9,1.4-1.4,3.1-1.4,5.2c0,3.6,1.6,6.3,5,8c3.2,1.7,8.2,3.3,14.7,4.8c4.1,1,7.9,2.1,11.5,3.5
			c3.5,1.4,6.6,3,9.2,5s4.6,4.5,6.1,7.2c1.5,2.8,2.2,6.1,2.2,9.8c0,5.1-1,9.4-2.8,12.9c-2,3.5-4.6,6.4-7.7,8.7
			c-3.2,2.2-6.9,3.8-11,4.8c-4.1,1-8.4,1.5-12.8,1.5c-6.6,0-13-1.2-19.2-3.8c-6.2-2.6-11.4-6.4-15.6-11.6l12.1-10.4
			c2.4,3.3,5.4,6.2,9.5,8.5s8.5,3.5,13.4,3.5c2.2,0,4.3-0.2,6.3-0.6c2-0.4,3.8-1.1,5.4-2.1c1.6-1,3-2.2,4-3.8c1-1.6,1.5-3.6,1.5-5.9
			c0-4-1.9-6.9-5.7-8.9c-3.8-2-9.4-3.7-16.8-5.4c-2.8-0.7-5.8-1.6-8.8-2.6c-3-1-5.7-2.5-8-4.3c-2.5-1.9-4.3-4.1-5.9-6.8
			c-1.5-2.7-2.2-6.1-2.2-10c0-4.6,1-8.5,2.8-11.9s4.3-6.1,7.4-8.2c3-2.1,6.4-3.7,10.4-4.7c3.8-1,7.9-1.5,12-1.5
			c6.2,0,12.1,1.2,17.9,3.6c5.7,2.4,10.2,5.9,13.4,10.5L302,78.7z"/>
		<path class="st0" d="M387.7,145.1c0-5.4,0-10.8,0-16.2c-2.2,4.6-5.8,8.5-11,11.8c-5.2,3.2-10.9,4.8-17.2,4.8
			c-5.6,0-10.4-0.9-14.5-2.7c-4.1-1.9-7.4-4.3-10-7.6c-2.6-3.2-4.6-6.9-5.8-11.1c-1.2-4.2-1.9-8.8-1.9-13.6V57h17.1v47.7
			c0,3.5,0.2,6.9,0.9,10.2c0.5,3.2,1.5,6.1,3,8.4c1.5,2.5,3.5,4.3,5.9,5.8c2.6,1.5,5.8,2.2,9.8,2.2c6.9,0,12.5-2.6,16.7-7.7
			c4.2-5.2,6.3-12,6.3-20.7V57.1H404c0,29.3,0,58.8-0.1,88.1C398.7,145.1,393.1,145.1,387.7,145.1z"/>
		<path class="st0" d="M435.9,186.7h-17.1V57h16.7v13.5h0.5c2.7-4.6,6.8-8.4,12.3-11.4c5.3-3,11.6-4.5,18.8-4.5
			c6.4,0,12.3,1.1,17.5,3.5s9.8,5.6,13.6,9.7c3.8,4.1,6.7,8.9,8.8,14.5c2.1,5.6,3.1,11.4,3.1,17.7c0,6.3-1,12.3-3.1,17.8
			s-5,10.4-8.7,14.5c-3.7,4.1-8.3,7.3-13.6,9.8c-5.3,2.4-11.3,3.6-17.9,3.6c-6.2,0-12-1.4-17.5-4c-5.4-2.7-9.8-6.4-12.9-11.3h-0.5
			V186.7z M492.5,99.8c0-4-0.6-7.9-1.9-11.6s-3.1-7.1-5.4-10c-2.5-2.8-5.4-5.2-9-6.9c-3.6-1.7-7.7-2.6-12.5-2.6
			c-4.3,0-8.3,0.9-11.9,2.6c-3.6,1.7-6.7,4-9.2,6.9c-2.6,3-4.6,6.2-5.9,10c-1.4,3.7-2.1,7.7-2.1,11.9c0,4.1,0.7,8,2.1,11.8
			s3.3,7.1,5.9,9.9c2.6,2.8,5.6,5.1,9.2,6.8c3.6,1.7,7.6,2.6,11.9,2.6c4.7,0,8.9-0.9,12.5-2.6c3.6-1.7,6.6-4.1,9-7.1
			c2.5-3,4.2-6.2,5.4-10C491.9,107.7,492.5,103.9,492.5,99.8z"/>
		<g>
			<path class="st0" d="M184.1,87.9c0-1.7-0.1-7.2-2.2-12.9c-1.5-4.1-3.6-7.7-6.6-10.8c-2.8-3-6.7-5.4-11.1-7.2
				c-4.6-1.7-9.9-2.6-16.1-2.6c-7.1,0-13.6,1.1-19.7,3.5c-6.1,2.4-11.3,5.4-15.6,9.4l9,10.9c3-2.8,6.6-5.3,10.8-7.2
				c4.3-1.9,8.9-2.8,13.7-2.8c6.4,0,11.6,1.5,15.5,4.6c3.8,3.1,5.8,7.8,5.8,14.2v2.4c-7.3,0-14.5,0.4-21.7,0.9s-13.6,1.9-19.3,4
				s-10.3,5-13.9,8.8s-5.3,9-5.3,15.6c0,5,1,9.2,3,12.5c2,3.3,4.5,6.1,7.6,8.2c3,2.1,6.4,3.6,10.2,4.5c3.7,0.9,7.3,1.4,10.6,1.4
				c6.6,0,12.3-1.2,17-3.8c1.9-1,3.7-2.2,5.3-3.6c3.1-2.6,5.2-5.2,6.6-7.2c0,3.3,0,6.7,0,10.2l0,0v3c0,0.2,0,0.4,0,0.6l0,0v0.1h0.4
				h0.1c0.1,0,0.2,0,0.4,0h15.2v-3.6c0.1-23.5,0.2-49.1,0.2-52.5C184.1,88.3,184.1,88.1,184.1,87.9z M167.7,106.6
				c0,7.3-2.1,13.2-6.4,18.1c-4.3,4.8-10.4,7.2-18.4,7.2c-2.2,0-4.3-0.2-6.3-0.6c-2.1-0.4-4-1.2-5.7-2.2c-1.7-1.1-3.1-2.5-4.1-4.2
				s-1.5-3.8-1.5-6.3c0-3.6,1.2-6.6,3.6-8.8c2.4-2.2,5.4-3.8,9.2-5c3.7-1.1,7.8-1.9,12.4-2.2c4.6-0.4,8.9-0.5,13.1-0.5h4.2
				L167.7,106.6L167.7,106.6z"/>
			<path class="st1" d="M150.4,102.5c-4.6,0.4-8.7,1.1-12.4,2.2c-3.7,1.1-6.8,2.7-9.2,5s-3.6,5.1-3.6,8.8c0,2.6,0.5,4.7,1.5,6.3
				c1,1.7,2.4,3.1,4.1,4.2c1.7,1.1,3.6,1.9,5.7,2.2c2.1,0.4,4.2,0.6,6.3,0.6c8,0,14.1-2.4,18.4-7.2c4.3-4.8,6.4-10.8,6.4-18.1V102
				h-4.2C159.3,102,154.9,102.1,150.4,102.5z"/>
		</g>
	</g>
</g>
</svg>
